PathFileType	4	(X/Y/Z)	RUN4
DataRate	CameraRate	NumFrames	NumMarkers	Units	OrigDataRate	OrigDataStartFrame	OrigNumFrames
100	100	7	42	mm	100	341	128
Frame#	Time	LPSI			RPSI			RTH2			RTH3			LTH1			LTH2			LTH3			RTB1			RTB2			LTB1			LTB2			RCAL			RTOE			RMT5			LCAL			LTOE			LMT5			LACR			RACR			CLAV			C7			RUA1			RUA2			RUA3			RLEL			LUA1			LUA2			LUA3			LLEL			LMEL			RFAsuperior			RFAulna			LFAsuperior			LFAradius			LFAulna			RASI			RTB3			LTB3			RMEL			RFAradius			RTH1			LASI		
		X1	Y1	Z1	X2	Y2	Z2	X3	Y3	Z3	X4	Y4	Z4	X5	Y5	Z5	X6	Y6	Z6	X7	Y7	Z7	X8	Y8	Z8	X9	Y9	Z9	X10	Y10	Z10	X11	Y11	Z11	X12	Y12	Z12	X13	Y13	Z13	X14	Y14	Z14	X15	Y15	Z15	X16	Y16	Z16	X17	Y17	Z17	X18	Y18	Z18	X19	Y19	Z19	X20	Y20	Z20	X21	Y21	Z21	X22	Y22	Z22	X23	Y23	Z23	X24	Y24	Z24	X25	Y25	Z25	X26	Y26	Z26	X27	Y27	Z27	X28	Y28	Z28	X29	Y29	Z29	X30	Y30	Z30	X31	Y31	Z31	X32	Y32	Z32	X33	Y33	Z33	X34	Y34	Z34	X35	Y35	Z35	X36	Y36	Z36	X37	Y37	Z37	X38	Y38	Z38	X39	Y39	Z39	X40	Y40	Z40	X41	Y41	Z41	X42	Y42	Z42	

341	  3.410000	813.717917	1080.469257	-409.902606	814.832419	1071.999026	-296.777066	916.041413	748.629730	-188.412222	1023.487641	623.698682	-184.522925	908.113060	884.885101	-530.844947	852.203600	728.952358	-475.494311	917.984768	600.239660	-462.222283	955.277578	447.749743	-245.800310	893.353811	517.512807	-177.071452	949.306149	378.780524	-374.467302	826.972993	307.708905	-414.333625	613.127848	537.425029	-251.639553	648.341110	297.194026	-264.482427	614.392423	340.752727	-172.688208	653.133375	110.930988	-301.420744	888.940251	 71.225513	-306.092109	829.491632	 37.318821	-397.732601	966.052836	1486.336629	-530.768395	988.429380	1483.033204	-203.605323	1041.157534	1443.460224	-335.787961	920.164590	1515.732598	-370.496457	859.673457	1415.730806	-144.518063	883.231757	1350.972075	-108.922047	792.628328	1304.613214	-69.273014	742.060661	1259.914071	-42.260210	863.113737	1387.011959	-574.841572	888.545605	1309.164522	-599.176158	812.609283	1246.031649	-617.066312	793.707143	1181.992072	-637.481859	781.824569	1160.358486	-548.642128	808.728735	1167.908867	-39.760176	892.288920	1040.572684	-94.366222	861.083231	1127.778407	-635.724854	1033.531335	1124.515454	-552.259628	1023.015664	1062.774637	-588.281269	974.701453	1006.624482	-226.990585	766.374558	444.239552	-253.235561	830.092121	195.513796	-343.456545	736.883341	1232.449095	-126.663084	949.066846	1075.471701	-110.407506	915.741659	892.272309	-172.002032	969.284276	1014.301276	-471.011069	
342	  3.420000	814.912548	1085.466151	-411.880286	814.134726	1078.004191	-298.555215	922.682532	756.873706	-190.764089	1036.530721	637.994508	-186.241470	905.720161	887.691383	-529.902918	840.820189	734.167151	-477.093660	898.632519	602.546470	-461.932169	979.832956	454.264686	-246.233937	912.668141	520.020651	-178.332225	919.377421	379.032083	-374.850652	795.654221	311.124691	-415.430249	630.202127	512.963620	-248.624873	688.267979	277.196642	-262.212901	651.258621	317.366665	-169.713625	617.123839	118.260590	-304.086284	851.281435	 71.047271	-306.899041	790.984079	 37.643782	-398.284064	968.698615	1493.104900	-530.165680	983.028698	1490.012279	-202.984526	1039.213953	1449.864134	-333.945938	919.098499	1521.419320	-371.340313	852.247292	1424.273419	-148.107881	874.064999	1360.278328	-109.888120	782.109943	1315.225038	-72.800216	730.547580	1271.150966	-47.067489	868.195248	1393.080850	-577.308929	894.689297	1315.052060	-599.433766	819.829914	1250.849249	-618.884116	802.256815	1186.394892	-638.943371	789.394123	1165.339796	-549.766761	797.708547	1180.246891	-42.695558	883.529851	1052.895465	-94.584067	871.787171	1135.425169	-634.995322	1042.680974	1143.090923	-549.537216	1036.057456	1079.240066	-582.769226	973.066016	1013.203586	-225.970206	794.102589	434.431245	-251.871506	795.858637	198.761684	-344.748825	727.619615	1243.404764	-131.754286	939.658748	1088.807241	-109.971285	913.455487	900.637241	-173.797196	970.685115	1018.479316	-471.738173	
343	  3.430000	816.833650	1091.237905	-413.988612	814.048902	1084.945780	-300.546895	928.601173	766.161786	-193.133018	1047.424346	652.967737	-188.188298	904.421029	891.663021	-528.534133	829.604276	741.248979	-477.966068	879.438183	606.761542	-462.021738	1002.870344	460.968749	-247.355625	930.391502	522.010339	-180.219018	888.937479	381.767660	-375.823418	763.744059	317.501233	-417.301024	648.521271	486.320486	-246.633929	730.284816	257.624352	-260.130295	690.282973	294.254334	-167.062591	581.160349	129.256415	-308.235537	812.156151	 70.562284	-307.726880	750.904779	 38.198381	-398.893213	970.897969	1501.251963	-529.122075	977.846300	1497.784901	-202.212758	1037.182201	1457.515764	-331.914130	917.815408	1528.019651	-371.608051	845.312311	1433.538534	-152.069295	865.366021	1370.464965	-110.967999	772.307599	1326.625623	-76.473706	719.969133	1283.034797	-51.874638	872.508697	1400.650415	-578.814028	900.384497	1322.653948	-599.578979	826.911652	1257.421350	-620.870187	810.185910	1192.791680	-640.466025	795.918415	1172.325943	-551.064088	786.859075	1192.768882	-45.804417	875.822610	1066.223203	-95.680153	881.623054	1145.424905	-634.142449	1050.121258	1163.634004	-546.690340	1047.134865	1097.872979	-576.679934	972.329057	1020.857376	-225.742474	821.708721	424.184173	-251.138189	761.374701	204.474860	-346.966471	719.326827	1254.979258	-136.883600	931.228327	1103.457611	-109.541845	910.850382	910.075542	-175.543052	972.811358	1023.433957	-472.598605	
344	  3.440000	819.395014	1097.620555	-416.091554	814.554961	1092.614130	-302.595850	933.792607	776.136040	-194.817524	1056.564050	667.927808	-190.235603	904.163292	896.417160	-527.104941	818.759891	750.007725	-478.202877	860.724185	613.016429	-462.671344	1024.405058	467.569426	-248.568204	946.716452	522.990502	-182.479054	858.621597	387.019394	-377.706628	731.693265	326.824533	-419.963458	668.606665	457.813817	-245.899410	774.434737	239.058683	-258.029587	731.156309	272.105685	-164.761618	546.533674	143.308342	-313.545048	772.439515	 69.572339	-308.519515	710.066341	 38.786434	-399.309234	972.575000	1510.369018	-527.692458	973.155465	1505.974740	-201.293409	1035.091105	1466.058015	-329.700581	916.421734	1535.428332	-371.332301	839.180790	1443.340384	-155.663320	857.459989	1381.030352	-112.160026	763.327063	1338.421043	-80.160471	710.106030	1295.194477	-56.697271	876.057930	1409.228441	-579.602112	905.627312	1331.507450	-599.703626	833.827842	1265.295346	-622.966695	817.525964	1200.622857	-642.265258	801.696752	1180.626737	-552.917848	776.528489	1205.253482	-49.206332	869.074618	1080.180746	-97.517774	890.506962	1157.016836	-633.372254	1055.742337	1184.942085	-543.665611	1056.307103	1117.764078	-570.454956	972.021165	1029.155287	-226.126467	847.918562	412.999507	-250.744148	727.555728	212.514424	-350.358230	711.742618	1266.861521	-142.103186	923.682900	1118.917493	-109.687063	909.183286	920.291944	-176.103394	975.577893	1028.999339	-473.453310	
345	  3.450000	822.553669	1104.314251	-418.134130	815.678269	1100.794962	-304.572675	938.437195	786.438414	-195.698341	1064.174616	682.348119	-192.295157	904.604383	901.562379	-525.749121	808.417935	760.129147	-478.189592	842.344005	621.211394	-463.876602	1044.529207	473.917619	-249.588522	961.807442	522.711904	-184.870963	829.085717	394.380845	-380.820672	700.618984	337.989573	-423.486665	690.986246	427.804232	-246.422301	820.402450	221.879041	-256.097662	773.452167	251.186770	-163.047062	514.658060	159.247100	-319.559690	733.356242	 68.192568	-309.459873	669.581087	 39.379415	-399.551799	973.855458	1520.053116	-525.989986	968.996083	1514.348549	-200.316062	1032.985515	1475.078936	-327.427816	915.039735	1543.443043	-370.726066	833.903517	1453.442692	-158.381648	850.499653	1391.511035	-113.483291	755.114076	1350.317504	-83.783497	700.853378	1307.282971	-61.592597	879.118762	1418.530510	-580.158977	910.418064	1341.179834	-599.880752	840.240062	1274.208871	-625.119646	824.140127	1209.445479	-644.419452	806.842770	1189.754546	-555.422580	767.206149	1217.723978	-52.929799	863.289480	1094.443521	-99.819695	898.265068	1169.498020	-632.849652	1059.614937	1206.377453	-540.673913	1063.586727	1138.272551	-564.358518	972.064380	1037.866806	-226.774298	872.860517	400.687159	-250.515091	695.442322	222.192246	-354.900965	704.636614	1278.808785	-147.425323	917.017548	1134.698790	-110.701349	909.373641	930.953077	-175.111804	978.942664	1034.873562	-474.243876	
346	  3.460000	826.201775	1111.031230	-420.109115	817.337798	1109.194437	-306.469915	942.844458	796.728160	-196.054005	1070.286846	695.787180	-194.266906	905.160924	906.933858	-524.564021	798.754132	771.370440	-478.271384	824.298844	631.033628	-465.481956	1063.267439	479.842755	-250.409336	975.759967	520.974373	-187.233529	801.004345	403.436869	-385.227628	671.605879	350.028922	-427.795411	716.042695	396.730711	-248.073892	867.710168	206.303945	-254.714904	816.916929	231.452918	-162.177007	486.222860	176.329679	-325.891680	695.478926	 66.953959	-310.761089	630.064245	 40.467726	-399.996464	974.929747	1529.935370	-524.110801	965.300109	1522.697229	-199.415665	1030.915343	1484.130565	-325.281298	913.705328	1551.694175	-370.026095	829.359880	1463.509279	-160.195528	844.450661	1401.583467	-114.913843	747.669248	1362.104254	-87.293555	692.389035	1319.061530	-66.519397	881.900441	1428.342851	-580.758219	914.691846	1351.344345	-600.225970	845.745528	1283.962028	-627.348569	829.925113	1218.958199	-646.899013	811.154217	1199.364241	-558.407875	759.248566	1230.214135	-56.840633	858.487233	1108.662855	-102.242721	904.897289	1182.397654	-632.743561	1061.947502	1227.546112	-537.877296	1069.068076	1158.880713	-558.661467	972.536864	1046.817582	-227.315995	898.043869	387.785939	-250.677629	665.769396	232.918255	-360.395749	698.035877	1290.634514	-152.690233	911.238018	1150.351974	-112.574418	911.302770	941.681314	-173.210414	982.797448	1040.769706	-474.964503	
347	  3.470000	830.139325	1117.607779	-421.970315	819.333004	1117.446986	-308.332377	947.149997	806.707530	-196.126178	1074.804398	707.813363	-196.142019	905.315256	912.545724	-523.815868	790.036516	783.427187	-478.613230	807.138971	642.005809	-467.320823	1080.546984	485.087092	-251.088225	988.695983	517.582786	-189.431577	774.907092	413.922820	-390.531739	644.998444	362.829423	-432.541767	743.881807	365.097316	-250.689274	915.892659	192.565818	-254.192269	861.472004	212.886455	-162.248002	461.059857	194.537881	-332.451412	658.530815	 66.543391	-312.455163	591.638790	 42.933465	-401.172686	975.922296	1539.657883	-522.123262	962.017901	1530.752723	-198.690809	1028.914081	1492.813439	-323.377966	912.401683	1559.746034	-369.359842	825.405143	1473.207203	-161.473368	839.165110	1411.102274	-116.356207	741.101315	1373.550731	-90.598571	684.961879	1330.356944	-71.314846	884.432892	1438.405021	-581.375166	918.335437	1361.738647	-600.847764	850.097683	1294.317485	-629.733280	834.870536	1228.944124	-649.601773	814.348856	1209.142912	-561.627116	752.745563	1242.598134	-60.707756	854.650161	1122.491967	-104.452520	910.527624	1195.468877	-633.151710	1062.923609	1248.079285	-535.264448	1073.014964	1179.122724	-553.710851	973.348052	1055.736191	-227.485818	924.866416	375.154929	-251.602169	638.756554	244.528285	-366.580646	692.099354	1302.097991	-157.657768	906.310063	1165.494317	-115.111025	914.052839	952.140324	-171.367742	986.940700	1046.528270	-475.576340	
